<svg xmlns="http://www.w3.org/2000/svg" width="14.003" height="14" viewBox="0 0 14.003 14">
  <path id="Icon_awesome-instagram" data-name="Icon awesome-instagram" d="M7,4.405A3.589,3.589,0,1,0,10.59,7.995,3.584,3.584,0,0,0,7,4.405Zm0,5.923A2.334,2.334,0,1,1,9.334,7.995,2.338,2.338,0,0,1,7,10.328Zm4.573-6.07a.837.837,0,1,1-.837-.837A.835.835,0,0,1,11.574,4.258Zm2.377.85a4.143,4.143,0,0,0-1.131-2.933A4.17,4.17,0,0,0,9.887,1.044c-1.156-.066-4.62-.066-5.776,0A4.164,4.164,0,0,0,1.178,2.171,4.157,4.157,0,0,0,.047,5.1c-.066,1.156-.066,4.62,0,5.776a4.143,4.143,0,0,0,1.131,2.933,4.176,4.176,0,0,0,2.933,1.131c1.156.066,4.62.066,5.776,0a4.143,4.143,0,0,0,2.933-1.131,4.17,4.17,0,0,0,1.131-2.933c.066-1.156.066-4.617,0-5.773Zm-1.493,7.013a2.363,2.363,0,0,1-1.331,1.331A15.429,15.429,0,0,1,7,13.733a15.549,15.549,0,0,1-4.127-.281,2.363,2.363,0,0,1-1.331-1.331,15.429,15.429,0,0,1-.281-4.127,15.549,15.549,0,0,1,.281-4.127A2.363,2.363,0,0,1,2.874,2.537,15.429,15.429,0,0,1,7,2.256a15.549,15.549,0,0,1,4.127.281,2.363,2.363,0,0,1,1.331,1.331,15.429,15.429,0,0,1,.281,4.127A15.42,15.42,0,0,1,12.458,12.121Z" transform="translate(0.002 -0.995)" fill="#404040"/>
</svg>
