<svg xmlns="http://www.w3.org/2000/svg" width="14" height="14" viewBox="0 0 14 14">
  <path id="Icon_awesome-dribbble" data-name="Icon awesome-dribbble" d="M7.25.25a7,7,0,1,0,7,7A7.008,7.008,0,0,0,7.25.25Zm4.628,3.228A5.951,5.951,0,0,1,13.228,7.2,13.973,13.973,0,0,0,9.065,7.01c-.162-.4-.316-.745-.525-1.175a7.965,7.965,0,0,0,3.339-2.358Zm-.665-.691A6.751,6.751,0,0,1,8.08,4.946a31.915,31.915,0,0,0-2.231-3.5A5.964,5.964,0,0,1,11.213,2.787ZM4.708,1.848A38.15,38.15,0,0,1,6.925,5.306,22.3,22.3,0,0,1,1.4,6.035,6,6,0,0,1,4.708,1.848ZM1.271,7.259c0-.061,0-.122,0-.183a22.056,22.056,0,0,0,6.145-.851c.171.335.335.675.485,1.015a9.261,9.261,0,0,0-5.1,4.017A5.955,5.955,0,0,1,1.271,7.259ZM3.58,11.976A8.41,8.41,0,0,1,8.31,8.229a24.853,24.853,0,0,1,1.275,4.534,5.967,5.967,0,0,1-6.006-.787Zm7.011.24A25.806,25.806,0,0,0,9.429,7.953a8.776,8.776,0,0,1,3.724.256A5.99,5.99,0,0,1,10.591,12.216Z" transform="translate(-0.25 -0.25)" fill="#404040"/>
</svg>
