<svg xmlns="http://www.w3.org/2000/svg" width="22.394" height="14" viewBox="0 0 22.394 14">
  <path id="Icon_simple-behance" data-name="Icon simple-behance" d="M6.476,3a8.324,8.324,0,0,1,1.792.175,4.031,4.031,0,0,1,1.386.569,2.624,2.624,0,0,1,.9,1.045,3.73,3.73,0,0,1,.317,1.615,3.038,3.038,0,0,1-.473,1.736,3.419,3.419,0,0,1-1.4,1.139,3.29,3.29,0,0,1,1.887,1.279,3.831,3.831,0,0,1,.621,2.2,3.859,3.859,0,0,1-.383,1.8,3.454,3.454,0,0,1-1.083,1.26,4.751,4.751,0,0,1-1.559.716,6.829,6.829,0,0,1-1.783.237H0V3.009H6.476Zm9.336,11.353a2.436,2.436,0,0,0,1.768.6,2.438,2.438,0,0,0,1.428-.417,1.718,1.718,0,0,0,.728-.877h2.416a4.544,4.544,0,0,1-1.774,2.567A5.121,5.121,0,0,1,17.5,17a5.721,5.721,0,0,1-2.121-.373,4.618,4.618,0,0,1-1.606-1.064,4.761,4.761,0,0,1-1.005-1.652,6.125,6.125,0,0,1-.348-2.119A5.677,5.677,0,0,1,12.8,9.712a4.845,4.845,0,0,1,2.666-2.785,5,5,0,0,1,2.072-.4,4.705,4.705,0,0,1,2.222.488,4.481,4.481,0,0,1,1.55,1.307,5.2,5.2,0,0,1,.877,1.886,7.532,7.532,0,0,1,.2,2.222H15.205a2.829,2.829,0,0,0,.663,1.928l-.075.028ZM6.254,14.4a3.93,3.93,0,0,0,.846-.087,2.165,2.165,0,0,0,.712-.28A1.383,1.383,0,0,0,8.3,13.49a1.914,1.914,0,0,0,.177-.9,1.812,1.812,0,0,0-.6-1.512A2.571,2.571,0,0,0,6.3,10.634H3.024v3.781h3.23v-.028Zm12.7-5.274a2.055,2.055,0,0,0-1.547-.553,2.315,2.315,0,0,0-1.088.222,2.011,2.011,0,0,0-.691.551,1.943,1.943,0,0,0-.366.7,3.272,3.272,0,0,0-.126.663h4.445a2.667,2.667,0,0,0-.635-1.578v.009ZM6.086,8.553a2.174,2.174,0,0,0,1.33-.385A1.437,1.437,0,0,0,7.933,6.92a1.759,1.759,0,0,0-.168-.79A1.364,1.364,0,0,0,7.3,5.652a1.976,1.976,0,0,0-.672-.24,4.132,4.132,0,0,0-.784-.069H3.015V8.554H6.086Zm8.493-4.628H20.15V5.282H14.579V3.923Z" transform="translate(0 -3.002)" fill="#404040"/>
</svg>
