<svg xmlns="http://www.w3.org/2000/svg" width="14" height="14" viewBox="0 0 14 14">
  <defs>
    <style>
      .cls-1 {
        fill: #1f2020;
      }
    </style>
  </defs>
  <path id="Comment_Icon" data-name="Comment Icon" class="cls-1" d="M12.492,0H1.509A1.51,1.51,0,0,0,0,1.509V9.554a1.51,1.51,0,0,0,1.509,1.508H4.989l1.153,2.306A1,1,0,0,0,7,14a1,1,0,0,0,.858-.632l1.153-2.306h3.481A1.51,1.51,0,0,0,14,9.554V1.509A1.51,1.51,0,0,0,12.492,0Zm.688,9.554a.689.689,0,0,1-.688.688H8.757a.41.41,0,0,0-.367.227L7.124,13A.5.5,0,0,1,7,13.173.5.5,0,0,1,6.876,13L5.61,10.469a.41.41,0,0,0-.367-.227H1.509A.689.689,0,0,1,.82,9.554V1.509A.689.689,0,0,1,1.509.82H12.492a.689.689,0,0,1,.688.688Zm0,0"/>
</svg>
