<svg xmlns="http://www.w3.org/2000/svg" width="15" height="14" viewBox="0 0 15 14">
  <g id="Heart_Icon" data-name="Heart Icon" transform="translate(0 0)" fill="rgba(31,32,32,0)">
    <path d="M 7.500002861022949 13.38972568511963 C 4.1161208152771 10.99860763549805 1.853721618652344 8.567153930664063 0.9479528665542603 6.344608783721924 C 0.1251128613948822 4.324898719787598 0.5811928510665894 2.965778589248657 1.10869288444519 2.181278705596924 C 1.806002855300903 1.14422869682312 3.053552865982056 0.5000086426734924 4.364492893218994 0.5000086426734924 C 5.471703052520752 0.5000086426734924 6.446753025054932 0.9552486538887024 7.110023021697998 1.781878709793091 L 7.500002861022949 2.267908573150635 L 7.8899827003479 1.781878709793091 C 8.553253173828125 0.9552486538887024 9.528303146362305 0.5000086426734924 10.63551330566406 0.5000086426734924 C 11.94659328460693 0.5000086426734924 13.1942024230957 1.144188642501831 13.89146327972412 2.181168556213379 C 14.41893291473389 2.96561861038208 14.87496280670166 4.324728488922119 14.05203247070313 6.344658851623535 C 13.14627361297607 8.567155838012695 10.88387584686279 10.99861621856689 7.500002861022949 13.38972568511963 Z" stroke="none"/>
    <path d="M 7.500003337860107 12.77555751800537 C 11.45051193237305 9.928511619567871 12.99325370788574 7.617793560028076 13.58899307250977 6.156018733978271 C 14.17462253570557 4.718528747558594 14.13574314117432 3.440528631210327 13.47654247283936 2.460158586502075 C 12.87094306945801 1.559508681297302 11.78232288360596 1.000008702278137 10.63551330566406 1.000008702278137 C 9.682982444763184 1.000008702278137 8.846432685852051 1.388808608055115 8.279962539672852 2.094798564910889 L 7.500002861022949 3.066858768463135 L 6.720042705535889 2.094798564910889 C 6.153573036193848 1.388808608055115 5.317022800445557 1.000008702278137 4.364492893218994 1.000008702278137 C 3.217822790145874 1.000008702278137 2.129262924194336 1.559548616409302 1.523612856864929 2.460278749465942 C 0.8643728494644165 3.440698623657227 0.8254428505897522 4.718668460845947 1.410972833633423 6.155908584594727 C 2.00674033164978 7.617778778076172 3.549477815628052 9.928494453430176 7.500003337860107 12.77555751800537 M 7.500002861022949 13.99999904632568 C 3.467302799224854 11.20465850830078 1.3523029088974 8.661648750305176 0.484922856092453 6.533308506011963 C -1.14367413520813 2.535789251327515 1.629615902900696 7.098083642631536e-06 4.364495754241943 7.098083642631536e-06 C 5.531755447387695 7.098083642631536e-06 6.691858291625977 0.4617838561534882 7.500002861022949 1.468968629837036 C 8.307982444763184 0.4619893431663513 9.468491554260254 7.098083642631536e-06 10.63551044464111 7.098083642631536e-06 C 13.37062168121338 7.098083642631536e-06 16.14382171630859 2.535441160202026 14.51508331298828 6.533308506011963 C 13.64769268035889 8.661648750305176 11.53270244598389 11.20465850830078 7.500002861022949 13.99999904632568 Z" stroke="none" fill="#1f2020"/>
  </g>
</svg>
